solid crate 20mm 5mm flat
facet normal -0.0 -0.0 1.0
  outer loop
    vertex 9.0 0.0 20.0
    vertex 0.0 8.999999999999998 20.0
    vertex 0.0 0.0 20.0
  endloop
endfacet
facet normal -0.0 -0.0 1.0
  outer loop
    vertex 0.0 8.999999999999998 20.0
    vertex 9.0 0.0 20.0
    vertex 5.6533337816991915 8.835314297038654 20.0
  endloop
endfacet
facet normal -0.0 -0.0 1.0
  outer loop
    vertex 0.0 8.999999999999998 20.0
    vertex 5.6533337816991915 8.835314297038654 20.0
    vertex 5.631652497587395 9.0 20.0
  endloop
endfacet
facet normal -0.0 -0.0 1.0
  outer loop
    vertex 5.6533337816991915 8.835314297038654 20.0
    vertex 9.0 0.0 20.0
    vertex 6.102885682970026 7.749999999999997 20.0
  endloop
endfacet
facet normal -0.0 -0.0 1.0
  outer loop
    vertex 6.102885682970026 7.749999999999997 20.0
    vertex 9.0 0.0 20.0
    vertex 6.818019484660537 6.818019484660533 20.0
  endloop
endfacet
facet normal -0.0 -0.0 1.0
  outer loop
    vertex 6.818019484660537 6.818019484660533 20.0
    vertex 9.0 0.0 20.0
    vertex 7.75 6.102885682970023 20.0
  endloop
endfacet
facet normal -0.0 -0.0 1.0
  outer loop
    vertex 7.75 6.102885682970023 20.0
    vertex 9.0 0.0 20.0
    vertex 8.835314297038657 5.653333781699191 20.0
  endloop
endfacet
facet normal -0.0 -0.0 1.0
  outer loop
    vertex 8.835314297038657 5.653333781699191 20.0
    vertex 9.0 0.0 20.0
    vertex 9.0 5.631652497587393 20.0
  endloop
endfacet
facet normal -0.0 -0.0 1.0
  outer loop
    vertex 5.631652497587393 11.0 20.0
    vertex 0.0 20.0 20.0
    vertex 0.0 11.0 20.0
  endloop
endfacet
facet normal -0.0 -0.0 1.0
  outer loop
    vertex 0.0 20.0 20.0
    vertex 5.631652497587393 11.0 20.0
    vertex 5.653333781699191 11.164685702961341 20.0
  endloop
endfacet
facet normal -0.0 -0.0 1.0
  outer loop
    vertex 0.0 20.0 20.0
    vertex 5.653333781699191 11.164685702961341 20.0
    vertex 9.0 20.0 20.0
  endloop
endfacet
facet normal -0.0 -0.0 1.0
  outer loop
    vertex 9.0 20.0 20.0
    vertex 5.653333781699191 11.164685702961341 20.0
    vertex 6.102885682970023 12.249999999999996 20.0
  endloop
endfacet
facet normal -0.0 -0.0 1.0
  outer loop
    vertex 9.0 20.0 20.0
    vertex 6.102885682970023 12.249999999999996 20.0
    vertex 6.818019484660535 13.181980515339465 20.0
  endloop
endfacet
facet normal -0.0 -0.0 1.0
  outer loop
    vertex 9.0 20.0 20.0
    vertex 6.818019484660535 13.181980515339465 20.0
    vertex 7.749999999999997 13.897114317029974 20.0
  endloop
endfacet
facet normal -0.0 -0.0 1.0
  outer loop
    vertex 9.0 20.0 20.0
    vertex 7.749999999999997 13.897114317029974 20.0
    vertex 8.835314297038652 14.34666621830081 20.0
  endloop
endfacet
facet normal -0.0 -0.0 1.0
  outer loop
    vertex 9.0 20.0 20.0
    vertex 8.835314297038652 14.34666621830081 20.0
    vertex 9.0 14.368347502412606 20.0
  endloop
endfacet
facet normal -0.0 -0.0 1.0
  outer loop
    vertex 20.0 0.0 20.0
    vertex 11.0 5.631652497587394 20.0
    vertex 11.0 0.0 20.0
  endloop
endfacet
facet normal -0.0 -0.0 1.0
  outer loop
    vertex 11.0 5.631652497587394 20.0
    vertex 20.0 0.0 20.0
    vertex 11.164685702961345 5.6533337816991915 20.0
  endloop
endfacet
facet normal -0.0 -0.0 1.0
  outer loop
    vertex 11.164685702961345 5.6533337816991915 20.0
    vertex 20.0 0.0 20.0
    vertex 12.250000000000004 6.102885682970025 20.0
  endloop
endfacet
facet normal -0.0 -0.0 1.0
  outer loop
    vertex 12.250000000000004 6.102885682970025 20.0
    vertex 20.0 0.0 20.0
    vertex 13.181980515339465 6.818019484660535 20.0
  endloop
endfacet
facet normal -0.0 -0.0 1.0
  outer loop
    vertex 13.181980515339465 6.818019484660535 20.0
    vertex 20.0 0.0 20.0
    vertex 13.897114317029974 7.75 20.0
  endloop
endfacet
facet normal -0.0 -0.0 1.0
  outer loop
    vertex 13.897114317029974 7.75 20.0
    vertex 20.0 0.0 20.0
    vertex 14.34666621830081 8.835314297038657 20.0
  endloop
endfacet
facet normal -0.0 -0.0 1.0
  outer loop
    vertex 14.34666621830081 8.835314297038657 20.0
    vertex 20.0 0.0 20.0
    vertex 14.368347502412606 9.0 20.0
  endloop
endfacet
facet normal -0.0 -0.0 1.0
  outer loop
    vertex 14.368347502412606 9.0 20.0
    vertex 20.0 0.0 20.0
    vertex 20.0 8.999999999999998 20.0
  endloop
endfacet
facet normal -0.0 -0.0 1.0
  outer loop
    vertex 11.164685702961345 14.34666621830081 20.0
    vertex 11.0 20.0 20.0
    vertex 11.0 14.368347502412606 20.0
  endloop
endfacet
facet normal -0.0 -0.0 1.0
  outer loop
    vertex 11.0 20.0 20.0
    vertex 11.164685702961345 14.34666621830081 20.0
    vertex 20.0 20.0 20.0
  endloop
endfacet
facet normal -0.0 -0.0 1.0
  outer loop
    vertex 20.0 20.0 20.0
    vertex 11.164685702961345 14.34666621830081 20.0
    vertex 12.25 13.897114317029974 20.0
  endloop
endfacet
facet normal -0.0 -0.0 1.0
  outer loop
    vertex 20.0 20.0 20.0
    vertex 12.25 13.897114317029974 20.0
    vertex 13.181980515339465 13.181980515339465 20.0
  endloop
endfacet
facet normal -0.0 -0.0 1.0
  outer loop
    vertex 20.0 20.0 20.0
    vertex 13.181980515339465 13.181980515339465 20.0
    vertex 13.897114317029974 12.250000000000002 20.0
  endloop
endfacet
facet normal -0.0 -0.0 1.0
  outer loop
    vertex 20.0 20.0 20.0
    vertex 13.897114317029974 12.250000000000002 20.0
    vertex 14.34666621830081 11.164685702961345 20.0
  endloop
endfacet
facet normal -0.0 -0.0 1.0
  outer loop
    vertex 20.0 20.0 20.0
    vertex 14.34666621830081 11.164685702961345 20.0
    vertex 14.368347502412606 11.0 20.0
  endloop
endfacet
facet normal -0.0 -0.0 1.0
  outer loop
    vertex 20.0 20.0 20.0
    vertex 14.368347502412606 11.0 20.0
    vertex 20.0 11.0 20.0
  endloop
endfacet
facet normal 0.130526192220044 -0.9914448613738114 -4.168805080948546e-31
  outer loop
    vertex 9.0 14.368347502412606 20.0
    vertex 8.835314297038652 14.34666621830081 19.0
    vertex 9.0 14.368347502412606 19.0
  endloop
endfacet
facet normal 0.2588190451025176 -0.9659258262890692 -4.213932299700511e-31
  outer loop
    vertex 8.835314297038652 14.34666621830081 19.0
    vertex 9.0 14.368347502412606 20.0
    vertex 8.835314297038652 14.34666621830081 20.0
  endloop
endfacet
facet normal 0.2588190451025176 -0.9659258262890692 -4.213932299700511e-31
  outer loop
    vertex 8.835314297038652 14.34666621830081 20.0
    vertex 7.749999999999997 13.897114317029974 19.0
    vertex 8.835314297038652 14.34666621830081 19.0
  endloop
endfacet
facet normal 0.5000000000000009 -0.8660254037844383 -4.088343625578383e-31
  outer loop
    vertex 7.749999999999997 13.897114317029974 19.0
    vertex 8.835314297038652 14.34666621830081 20.0
    vertex 7.749999999999997 13.897114317029974 20.0
  endloop
endfacet
facet normal 0.5000000000000009 -0.8660254037844383 -4.088343625578383e-31
  outer loop
    vertex 7.749999999999997 13.897114317029974 20.0
    vertex 6.818019484660535 13.181980515339465 19.0
    vertex 7.749999999999997 13.897114317029974 19.0
  endloop
endfacet
facet normal 0.707106781186548 -0.707106781186547 -3.684141089680379e-31
  outer loop
    vertex 6.818019484660535 13.181980515339465 19.0
    vertex 7.749999999999997 13.897114317029974 20.0
    vertex 6.818019484660535 13.181980515339465 20.0
  endloop
endfacet
facet normal 0.707106781186548 -0.707106781186547 -3.684141089680379e-31
  outer loop
    vertex 6.818019484660535 13.181980515339465 19.0
    vertex 6.102885682970023 12.249999999999996 20.0
    vertex 6.102885682970023 12.249999999999996 19.0
  endloop
endfacet
facet normal 0.8660254037844389 -0.4999999999999997 -3.0288704268516757e-31
  outer loop
    vertex 6.102885682970023 12.249999999999996 20.0
    vertex 6.818019484660535 13.181980515339465 19.0
    vertex 6.818019484660535 13.181980515339465 20.0
  endloop
endfacet
facet normal 0.8660254037844389 -0.4999999999999997 -3.0288704268516757e-31
  outer loop
    vertex 6.102885682970023 12.249999999999996 19.0
    vertex 5.653333781699191 11.164685702961341 20.0
    vertex 5.653333781699191 11.164685702961341 19.0
  endloop
endfacet
facet normal 0.965925826289068 -0.25881904510252146 -2.1671872498780784e-31
  outer loop
    vertex 5.653333781699191 11.164685702961341 20.0
    vertex 6.102885682970023 12.249999999999996 19.0
    vertex 6.102885682970023 12.249999999999996 20.0
  endloop
endfacet
facet normal 0.965925826289068 -0.25881904510252146 -2.1671872498780784e-31
  outer loop
    vertex 5.653333781699191 11.164685702961341 19.0
    vertex 5.631652497587393 11.0 20.0
    vertex 5.631652497587393 11.0 19.0
  endloop
endfacet
facet normal 0.9914448613738102 -0.13052619222005368 -1.6768461982556992e-31
  outer loop
    vertex 5.631652497587393 11.0 20.0
    vertex 5.653333781699191 11.164685702961341 19.0
    vertex 5.653333781699191 11.164685702961341 20.0
  endloop
endfacet
facet normal 0.9914448613738108 0.13052619222004927 -6.189709724224051e-32
  outer loop
    vertex 5.631652497587395 9.0 19.0
    vertex 5.6533337816991915 8.835314297038654 20.0
    vertex 5.6533337816991915 8.835314297038654 19.0
  endloop
endfacet
facet normal 0.9659258262890685 0.2588190451025199 -6.953733662391977e-33
  outer loop
    vertex 5.6533337816991915 8.835314297038654 20.0
    vertex 5.631652497587395 9.0 19.0
    vertex 5.631652497587395 9.0 20.0
  endloop
endfacet
facet normal 0.9659258262890685 0.2588190451025199 -6.953733662391977e-33
  outer loop
    vertex 5.6533337816991915 8.835314297038654 19.0
    vertex 6.102885682970026 7.749999999999997 20.0
    vertex 6.102885682970026 7.749999999999997 19.0
  endloop
endfacet
facet normal 0.8660254037844386 0.5000000000000003 1.0234780245987597e-31
  outer loop
    vertex 6.102885682970026 7.749999999999997 20.0
    vertex 5.6533337816991915 8.835314297038654 19.0
    vertex 5.6533337816991915 8.835314297038654 20.0
  endloop
endfacet
facet normal 0.8660254037844386 0.5000000000000003 1.0234780245987597e-31
  outer loop
    vertex 6.102885682970026 7.749999999999997 19.0
    vertex 6.818019484660537 6.818019484660533 20.0
    vertex 6.818019484660537 6.818019484660533 19.0
  endloop
endfacet
facet normal 0.7071067811865472 0.7071067811865478 2.0467450498224353e-31
  outer loop
    vertex 6.818019484660537 6.818019484660533 20.0
    vertex 6.102885682970026 7.749999999999997 19.0
    vertex 6.102885682970026 7.749999999999997 20.0
  endloop
endfacet
facet normal 0.7071067811865472 0.7071067811865478 2.0467450498224353e-31
  outer loop
    vertex 6.818019484660537 6.818019484660533 20.0
    vertex 7.75 6.102885682970023 19.0
    vertex 6.818019484660537 6.818019484660533 19.0
  endloop
endfacet
facet normal 0.49999999999999956 0.8660254037844389 2.930529782306833e-31
  outer loop
    vertex 7.75 6.102885682970023 19.0
    vertex 6.818019484660537 6.818019484660533 20.0
    vertex 7.75 6.102885682970023 20.0
  endloop
endfacet
facet normal 0.49999999999999956 0.8660254037844389 2.930529782306833e-31
  outer loop
    vertex 7.75 6.102885682970023 20.0
    vertex 8.835314297038657 5.653333781699191 19.0
    vertex 7.75 6.102885682970023 19.0
  endloop
endfacet
facet normal 0.258819045102521 0.9659258262890683 3.6146037530564643e-31
  outer loop
    vertex 8.835314297038657 5.653333781699191 19.0
    vertex 7.75 6.102885682970023 20.0
    vertex 8.835314297038657 5.653333781699191 20.0
  endloop
endfacet
facet normal 0.258819045102521 0.9659258262890683 3.6146037530564643e-31
  outer loop
    vertex 8.835314297038657 5.653333781699191 20.0
    vertex 9.0 5.631652497587393 19.0
    vertex 8.835314297038657 5.653333781699191 19.0
  endloop
endfacet
facet normal 0.13052619222005257 0.9914448613738104 3.866555016424751e-31
  outer loop
    vertex 9.0 5.631652497587393 19.0
    vertex 8.835314297038657 5.653333781699191 20.0
    vertex 9.0 5.631652497587393 20.0
  endloop
endfacet
facet normal -0.13052619222005038 0.9914448613738106 4.16880508094855e-31
  outer loop
    vertex 11.0 5.631652497587394 20.0
    vertex 11.164685702961345 5.6533337816991915 19.0
    vertex 11.0 5.631652497587394 19.0
  endloop
endfacet
facet normal -0.2588190451025202 0.9659258262890684 4.213932299700509e-31
  outer loop
    vertex 11.164685702961345 5.6533337816991915 19.0
    vertex 11.0 5.631652497587394 20.0
    vertex 11.164685702961345 5.6533337816991915 20.0
  endloop
endfacet
facet normal -0.2588190451025202 0.9659258262890684 4.213932299700509e-31
  outer loop
    vertex 11.164685702961345 5.6533337816991915 20.0
    vertex 12.250000000000004 6.102885682970025 19.0
    vertex 11.164685702961345 5.6533337816991915 19.0
  endloop
endfacet
facet normal -0.5000000000000006 0.8660254037844384 4.088343625578384e-31
  outer loop
    vertex 12.250000000000004 6.102885682970025 19.0
    vertex 11.164685702961345 5.6533337816991915 20.0
    vertex 12.250000000000004 6.102885682970025 20.0
  endloop
endfacet
facet normal -0.5000000000000006 0.8660254037844384 4.088343625578384e-31
  outer loop
    vertex 12.250000000000004 6.102885682970025 20.0
    vertex 13.181980515339465 6.818019484660535 19.0
    vertex 12.250000000000004 6.102885682970025 19.0
  endloop
endfacet
facet normal -0.707106781186548 0.707106781186547 3.684141089680379e-31
  outer loop
    vertex 13.181980515339465 6.818019484660535 19.0
    vertex 12.250000000000004 6.102885682970025 20.0
    vertex 13.181980515339465 6.818019484660535 20.0
  endloop
endfacet
facet normal -0.8660254037844388 0.49999999999999994 3.028870426851677e-31
  outer loop
    vertex 13.897114317029974 7.75 20.0
    vertex 13.181980515339465 6.818019484660535 19.0
    vertex 13.181980515339465 6.818019484660535 20.0
  endloop
endfacet
facet normal -0.707106781186548 0.707106781186547 3.684141089680379e-31
  outer loop
    vertex 13.181980515339465 6.818019484660535 19.0
    vertex 13.897114317029974 7.75 20.0
    vertex 13.897114317029974 7.75 19.0
  endloop
endfacet
facet normal -0.9659258262890686 0.2588190451025192 2.1671872498780705e-31
  outer loop
    vertex 14.34666621830081 8.835314297038657 20.0
    vertex 13.897114317029974 7.75 19.0
    vertex 13.897114317029974 7.75 20.0
  endloop
endfacet
facet normal -0.8660254037844388 0.49999999999999994 3.028870426851677e-31
  outer loop
    vertex 13.897114317029974 7.75 19.0
    vertex 14.34666621830081 8.835314297038657 20.0
    vertex 14.34666621830081 8.835314297038657 19.0
  endloop
endfacet
facet normal -0.9914448613738109 0.1305261922200484 1.6768461982556788e-31
  outer loop
    vertex 14.368347502412606 9.0 20.0
    vertex 14.34666621830081 8.835314297038657 19.0
    vertex 14.34666621830081 8.835314297038657 20.0
  endloop
endfacet
facet normal -0.9659258262890686 0.2588190451025192 2.1671872498780705e-31
  outer loop
    vertex 14.34666621830081 8.835314297038657 19.0
    vertex 14.368347502412606 9.0 20.0
    vertex 14.368347502412606 9.0 19.0
  endloop
endfacet
facet normal -0.9659258262890689 -0.2588190451025184 6.953733662392636e-33
  outer loop
    vertex 14.34666621830081 11.164685702961345 20.0
    vertex 14.368347502412606 11.0 19.0
    vertex 14.368347502412606 11.0 20.0
  endloop
endfacet
facet normal -0.9914448613738112 -0.1305261922200462 6.189709724224181e-32
  outer loop
    vertex 14.368347502412606 11.0 19.0
    vertex 14.34666621830081 11.164685702961345 20.0
    vertex 14.34666621830081 11.164685702961345 19.0
  endloop
endfacet
facet normal -0.8660254037844385 -0.5000000000000004 -1.0234780245987604e-31
  outer loop
    vertex 13.897114317029974 12.250000000000002 20.0
    vertex 14.34666621830081 11.164685702961345 19.0
    vertex 14.34666621830081 11.164685702961345 20.0
  endloop
endfacet
facet normal -0.9659258262890689 -0.2588190451025184 6.953733662392636e-33
  outer loop
    vertex 14.34666621830081 11.164685702961345 19.0
    vertex 13.897114317029974 12.250000000000002 20.0
    vertex 13.897114317029974 12.250000000000002 19.0
  endloop
endfacet
facet normal -0.7071067811865472 -0.7071067811865478 -2.0467450498224353e-31
  outer loop
    vertex 13.181980515339465 13.181980515339465 20.0
    vertex 13.897114317029974 12.250000000000002 19.0
    vertex 13.897114317029974 12.250000000000002 20.0
  endloop
endfacet
facet normal -0.8660254037844385 -0.5000000000000004 -1.0234780245987604e-31
  outer loop
    vertex 13.897114317029974 12.250000000000002 19.0
    vertex 13.181980515339465 13.181980515339465 20.0
    vertex 13.181980515339465 13.181980515339465 19.0
  endloop
endfacet
facet normal -0.7071067811865472 -0.7071067811865478 -2.0467450498224353e-31
  outer loop
    vertex 13.181980515339465 13.181980515339465 20.0
    vertex 12.25 13.897114317029974 19.0
    vertex 13.181980515339465 13.181980515339465 19.0
  endloop
endfacet
facet normal -0.5 -0.8660254037844386 -2.930529782306831e-31
  outer loop
    vertex 12.25 13.897114317029974 19.0
    vertex 13.181980515339465 13.181980515339465 20.0
    vertex 12.25 13.897114317029974 20.0
  endloop
endfacet
facet normal -0.5 -0.8660254037844386 -2.930529782306831e-31
  outer loop
    vertex 12.25 13.897114317029974 20.0
    vertex 11.164685702961345 14.34666621830081 19.0
    vertex 12.25 13.897114317029974 19.0
  endloop
endfacet
facet normal -0.25881904510251896 -0.9659258262890689 -3.6146037530564687e-31
  outer loop
    vertex 11.164685702961345 14.34666621830081 19.0
    vertex 12.25 13.897114317029974 20.0
    vertex 11.164685702961345 14.34666621830081 20.0
  endloop
endfacet
facet normal -0.25881904510251896 -0.9659258262890689 -3.6146037530564687e-31
  outer loop
    vertex 11.164685702961345 14.34666621830081 20.0
    vertex 11.0 14.368347502412606 19.0
    vertex 11.164685702961345 14.34666621830081 19.0
  endloop
endfacet
facet normal -0.1305261922200473 -0.9914448613738109 -3.8665550164247593e-31
  outer loop
    vertex 11.0 14.368347502412606 19.0
    vertex 11.164685702961345 14.34666621830081 20.0
    vertex 11.0 14.368347502412606 20.0
  endloop
endfacet
facet normal -3.1940922581879797e-31 -4.391876855008474e-31 1.0
  outer loop
    vertex 7.58518543427733 9.352952387243695 20.0
    vertex 7.58518543427733 10.6470476127563 20.0
    vertex 7.5 10.0 20.0
  endloop
endfacet
facet normal -3.1940922581879797e-31 -4.391876855008474e-31 1.0
  outer loop
    vertex 7.58518543427733 10.6470476127563 20.0
    vertex 7.58518543427733 9.352952387243695 20.0
    vertex 7.73138309994563 9.0 20.0
  endloop
endfacet
facet normal -3.1940922581879797e-31 -4.391876855008474e-31 1.0
  outer loop
    vertex 7.58518543427733 10.6470476127563 20.0
    vertex 7.73138309994563 9.0 20.0
    vertex 7.731383099945631 11.0 20.0
  endloop
endfacet
facet normal -3.1940922581879797e-31 -4.391876855008474e-31 1.0
  outer loop
    vertex 7.731383099945631 11.0 20.0
    vertex 7.73138309994563 9.0 20.0
    vertex 7.8349364905389045 8.75 20.0
  endloop
endfacet
facet normal -3.1940922581879797e-31 -4.391876855008474e-31 1.0
  outer loop
    vertex 7.731383099945631 11.0 20.0
    vertex 7.8349364905389045 8.75 20.0
    vertex 7.834936490538904 11.249999999999998 20.0
  endloop
endfacet
facet normal -3.1940922581879797e-31 -4.391876855008474e-31 1.0
  outer loop
    vertex 7.834936490538904 11.249999999999998 20.0
    vertex 7.8349364905389045 8.75 20.0
    vertex 8.232233047033631 11.767766952966367 20.0
  endloop
endfacet
facet normal -3.1940922581879797e-31 -4.391876855008474e-31 1.0
  outer loop
    vertex 8.232233047033631 11.767766952966367 20.0
    vertex 7.8349364905389045 8.75 20.0
    vertex 8.232233047033633 8.232233047033631 20.0
  endloop
endfacet
facet normal -3.1940922581879797e-31 -4.391876855008474e-31 1.0
  outer loop
    vertex 8.232233047033631 11.767766952966367 20.0
    vertex 8.232233047033633 8.232233047033631 20.0
    vertex 8.75 12.165063509461095 20.0
  endloop
endfacet
facet normal -3.1940922581879797e-31 -4.391876855008474e-31 1.0
  outer loop
    vertex 8.75 12.165063509461095 20.0
    vertex 8.232233047033633 8.232233047033631 20.0
    vertex 8.75 7.834936490538904 20.0
  endloop
endfacet
facet normal -3.1940922581879797e-31 -4.391876855008474e-31 1.0
  outer loop
    vertex 8.75 12.165063509461095 20.0
    vertex 8.75 7.834936490538904 20.0
    vertex 9.0 12.26861690005437 20.0
  endloop
endfacet
facet normal -3.1940922581879797e-31 -4.391876855008474e-31 1.0
  outer loop
    vertex 9.0 12.26861690005437 20.0
    vertex 8.75 7.834936490538904 20.0
    vertex 9.0 7.731383099945631 20.0
  endloop
endfacet
facet normal -3.1940922581879797e-31 -4.391876855008474e-31 1.0
  outer loop
    vertex 9.0 12.26861690005437 20.0
    vertex 9.0 7.731383099945631 20.0
    vertex 9.352952387243699 7.58518543427733 20.0
  endloop
endfacet
facet normal -3.1940922581879797e-31 -4.391876855008474e-31 1.0
  outer loop
    vertex 9.0 12.26861690005437 20.0
    vertex 9.352952387243699 7.58518543427733 20.0
    vertex 9.352952387243695 12.41481456572267 20.0
  endloop
endfacet
facet normal -3.1940922581879797e-31 -4.391876855008474e-31 1.0
  outer loop
    vertex 9.352952387243695 12.41481456572267 20.0
    vertex 9.352952387243699 7.58518543427733 20.0
    vertex 10.0 12.5 20.0
  endloop
endfacet
facet normal -3.1940922581879797e-31 -4.391876855008474e-31 1.0
  outer loop
    vertex 10.0 12.5 20.0
    vertex 9.352952387243699 7.58518543427733 20.0
    vertex 10.0 7.5 20.0
  endloop
endfacet
facet normal -3.1940922581879797e-31 -4.391876855008474e-31 1.0
  outer loop
    vertex 10.0 12.5 20.0
    vertex 10.0 7.5 20.0
    vertex 10.647047612756303 7.58518543427733 20.0
  endloop
endfacet
facet normal -3.1940922581879797e-31 -4.391876855008474e-31 1.0
  outer loop
    vertex 10.0 12.5 20.0
    vertex 10.647047612756303 7.58518543427733 20.0
    vertex 10.647047612756301 12.41481456572267 20.0
  endloop
endfacet
facet normal -3.1940922581879797e-31 -4.391876855008474e-31 1.0
  outer loop
    vertex 10.647047612756301 12.41481456572267 20.0
    vertex 10.647047612756303 7.58518543427733 20.0
    vertex 11.0 12.26861690005437 20.0
  endloop
endfacet
facet normal -3.1940922581879797e-31 -4.391876855008474e-31 1.0
  outer loop
    vertex 11.0 12.26861690005437 20.0
    vertex 10.647047612756303 7.58518543427733 20.0
    vertex 11.0 7.731383099945631 20.0
  endloop
endfacet
facet normal -3.1940922581879797e-31 -4.391876855008474e-31 1.0
  outer loop
    vertex 11.0 12.26861690005437 20.0
    vertex 11.0 7.731383099945631 20.0
    vertex 11.25 7.8349364905389045 20.0
  endloop
endfacet
facet normal -3.1940922581879797e-31 -4.391876855008474e-31 1.0
  outer loop
    vertex 11.0 12.26861690005437 20.0
    vertex 11.25 7.8349364905389045 20.0
    vertex 11.25 12.165063509461097 20.0
  endloop
endfacet
facet normal -3.1940922581879797e-31 -4.391876855008474e-31 1.0
  outer loop
    vertex 11.25 12.165063509461097 20.0
    vertex 11.25 7.8349364905389045 20.0
    vertex 11.767766952966369 11.767766952966369 20.0
  endloop
endfacet
facet normal -3.1940922581879797e-31 -4.391876855008474e-31 1.0
  outer loop
    vertex 11.767766952966369 11.767766952966369 20.0
    vertex 11.25 7.8349364905389045 20.0
    vertex 11.767766952966369 8.232233047033633 20.0
  endloop
endfacet
facet normal -3.1940922581879797e-31 -4.391876855008474e-31 1.0
  outer loop
    vertex 11.767766952966369 11.767766952966369 20.0
    vertex 11.767766952966369 8.232233047033633 20.0
    vertex 12.165063509461097 8.75 20.0
  endloop
endfacet
facet normal -3.1940922581879797e-31 -4.391876855008474e-31 1.0
  outer loop
    vertex 11.767766952966369 11.767766952966369 20.0
    vertex 12.165063509461097 8.75 20.0
    vertex 12.165063509461097 11.25 20.0
  endloop
endfacet
facet normal -3.1940922581879797e-31 -4.391876855008474e-31 1.0
  outer loop
    vertex 12.165063509461097 11.25 20.0
    vertex 12.165063509461097 8.75 20.0
    vertex 12.268616900054369 9.0 20.0
  endloop
endfacet
facet normal -3.1940922581879797e-31 -4.391876855008474e-31 1.0
  outer loop
    vertex 12.165063509461097 11.25 20.0
    vertex 12.268616900054369 9.0 20.0
    vertex 12.26861690005437 11.0 20.0
  endloop
endfacet
facet normal -3.1940922581879797e-31 -4.391876855008474e-31 1.0
  outer loop
    vertex 12.26861690005437 11.0 20.0
    vertex 12.268616900054369 9.0 20.0
    vertex 12.41481456572267 9.352952387243699 20.0
  endloop
endfacet
facet normal -3.1940922581879797e-31 -4.391876855008474e-31 1.0
  outer loop
    vertex 12.26861690005437 11.0 20.0
    vertex 12.41481456572267 9.352952387243699 20.0
    vertex 12.41481456572267 10.647047612756303 20.0
  endloop
endfacet
facet normal -3.1940922581879797e-31 -4.391876855008474e-31 1.0
  outer loop
    vertex 12.41481456572267 10.647047612756303 20.0
    vertex 12.41481456572267 9.352952387243699 20.0
    vertex 12.5 10.0 20.0
  endloop
endfacet
facet normal 2.940666265563479e-16 1.0 4.052348451450435e-31
  outer loop
    vertex 10.0 12.5 20.0
    vertex 10.647047612756301 12.41481456572267 19.0
    vertex 10.0 12.5 19.0
  endloop
endfacet
facet normal 0.2588190451025205 0.9659258262890684 3.614603753056465e-31
  outer loop
    vertex 10.647047612756301 12.41481456572267 19.0
    vertex 10.0 12.5 20.0
    vertex 10.647047612756301 12.41481456572267 20.0
  endloop
endfacet
facet normal 0.2588190451025205 0.9659258262890684 3.614603753056465e-31
  outer loop
    vertex 10.647047612756301 12.41481456572267 20.0
    vertex 11.0 12.26861690005437 19.0
    vertex 10.647047612756301 12.41481456572267 19.0
  endloop
endfacet
facet normal 0.382683432365089 0.9238795325112872 3.3008056173158927e-31
  outer loop
    vertex 11.0 12.26861690005437 19.0
    vertex 10.647047612756301 12.41481456572267 20.0
    vertex 11.0 12.26861690005437 20.0
  endloop
endfacet
facet normal 0.4999999999999997 0.8660254037844389 2.9305297823068334e-31
  outer loop
    vertex 11.25 12.165063509461097 20.0
    vertex 11.767766952966369 11.767766952966369 19.0
    vertex 11.25 12.165063509461097 19.0
  endloop
endfacet
facet normal 0.707106781186547 0.707106781186548 2.046745049822436e-31
  outer loop
    vertex 11.767766952966369 11.767766952966369 19.0
    vertex 11.25 12.165063509461097 20.0
    vertex 11.767766952966369 11.767766952966369 20.0
  endloop
endfacet
facet normal 0.707106781186547 0.707106781186548 2.046745049822436e-31
  outer loop
    vertex 11.767766952966369 11.767766952966369 19.0
    vertex 12.165063509461097 11.25 20.0
    vertex 12.165063509461097 11.25 19.0
  endloop
endfacet
facet normal 0.8660254037844392 0.4999999999999994 1.0234780245987553e-31
  outer loop
    vertex 12.165063509461097 11.25 20.0
    vertex 11.767766952966369 11.767766952966369 19.0
    vertex 11.767766952966369 11.767766952966369 20.0
  endloop
endfacet
facet normal 0.8660254037844392 0.4999999999999994 1.0234780245987553e-31
  outer loop
    vertex 12.165063509461097 11.25 19.0
    vertex 12.26861690005437 11.0 20.0
    vertex 12.26861690005437 11.0 19.0
  endloop
endfacet
facet normal 0.9238795325112873 0.3826834323650883 4.810861022835838e-32
  outer loop
    vertex 12.26861690005437 11.0 20.0
    vertex 12.165063509461097 11.25 19.0
    vertex 12.165063509461097 11.25 20.0
  endloop
endfacet
facet normal 0.9659258262890682 0.258819045102521 -6.953733662391498e-33
  outer loop
    vertex 12.41481456572267 10.647047612756303 19.0
    vertex 12.5 10.0 20.0
    vertex 12.5 10.0 19.0
  endloop
endfacet
facet normal 1.0 -1.514888682259974e-16 -1.1578138432715536e-31
  outer loop
    vertex 12.5 10.0 20.0
    vertex 12.41481456572267 10.647047612756303 19.0
    vertex 12.41481456572267 10.647047612756303 20.0
  endloop
endfacet
facet normal 1.0 -1.514888682259974e-16 -1.1578138432715536e-31
  outer loop
    vertex 12.5 10.0 19.0
    vertex 12.41481456572267 9.352952387243699 20.0
    vertex 12.41481456572267 9.352952387243699 19.0
  endloop
endfacet
facet normal 0.9659258262890679 -0.2588190451025222 -2.1671872498780814e-31
  outer loop
    vertex 12.41481456572267 9.352952387243699 20.0
    vertex 12.5 10.0 19.0
    vertex 12.5 10.0 20.0
  endloop
endfacet
facet normal 0.9659258262890679 -0.2588190451025222 -2.1671872498780814e-31
  outer loop
    vertex 12.41481456572267 9.352952387243699 19.0
    vertex 12.268616900054369 9.0 20.0
    vertex 12.268616900054369 9.0 19.0
  endloop
endfacet
facet normal 0.9238795325112857 -0.3826834323650921 -2.620447126797235e-31
  outer loop
    vertex 12.268616900054369 9.0 20.0
    vertex 12.41481456572267 9.352952387243699 19.0
    vertex 12.41481456572267 9.352952387243699 20.0
  endloop
endfacet
facet normal 0.8660254037844397 -0.499999999999998 -3.02887042685167e-31
  outer loop
    vertex 12.165063509461097 8.75 19.0
    vertex 11.767766952966369 8.232233047033633 20.0
    vertex 11.767766952966369 8.232233047033633 19.0
  endloop
endfacet
facet normal 0.7071067811865475 -0.7071067811865475 -3.684141089680381e-31
  outer loop
    vertex 11.767766952966369 8.232233047033633 20.0
    vertex 12.165063509461097 8.75 19.0
    vertex 12.165063509461097 8.75 20.0
  endloop
endfacet
facet normal 0.7071067811865475 -0.7071067811865475 -3.684141089680381e-31
  outer loop
    vertex 11.767766952966369 8.232233047033633 20.0
    vertex 11.25 7.8349364905389045 19.0
    vertex 11.767766952966369 8.232233047033633 19.0
  endloop
endfacet
facet normal 0.4999999999999994 -0.8660254037844392 -4.088343625578386e-31
  outer loop
    vertex 11.25 7.8349364905389045 19.0
    vertex 11.767766952966369 8.232233047033633 20.0
    vertex 11.25 7.8349364905389045 20.0
  endloop
endfacet
facet normal 0.4999999999999994 -0.8660254037844392 -4.088343625578386e-31
  outer loop
    vertex 11.25 7.8349364905389045 20.0
    vertex 11.0 7.731383099945631 19.0
    vertex 11.25 7.8349364905389045 19.0
  endloop
endfacet
facet normal 0.3826834323650883 -0.9238795325112873 -4.186957968481839e-31
  outer loop
    vertex 11.0 7.731383099945631 19.0
    vertex 11.25 7.8349364905389045 20.0
    vertex 11.0 7.731383099945631 20.0
  endloop
endfacet
facet normal 0.25881904510252274 -0.9659258262890678 -4.213932299700511e-31
  outer loop
    vertex 10.647047612756303 7.58518543427733 20.0
    vertex 10.0 7.5 19.0
    vertex 10.647047612756303 7.58518543427733 19.0
  endloop
endfacet
facet normal -1.514888682259974e-16 -1.0 -4.052348451450435e-31
  outer loop
    vertex 10.0 7.5 19.0
    vertex 10.647047612756303 7.58518543427733 20.0
    vertex 10.0 7.5 20.0
  endloop
endfacet
facet normal -1.514888682259974e-16 -1.0 -4.052348451450435e-31
  outer loop
    vertex 10.0 7.5 20.0
    vertex 9.352952387243699 7.58518543427733 19.0
    vertex 10.0 7.5 19.0
  endloop
endfacet
facet normal -0.2588190451025222 -0.9659258262890679 -3.6146037530564612e-31
  outer loop
    vertex 9.352952387243699 7.58518543427733 19.0
    vertex 10.0 7.5 20.0
    vertex 9.352952387243699 7.58518543427733 20.0
  endloop
endfacet
facet normal -0.2588190451025222 -0.9659258262890679 -3.6146037530564612e-31
  outer loop
    vertex 9.352952387243699 7.58518543427733 20.0
    vertex 9.0 7.731383099945631 19.0
    vertex 9.352952387243699 7.58518543427733 19.0
  endloop
endfacet
facet normal -0.3826834323650921 -0.9238795325112857 -3.3008056173158835e-31
  outer loop
    vertex 9.0 7.731383099945631 19.0
    vertex 9.352952387243699 7.58518543427733 20.0
    vertex 9.0 7.731383099945631 20.0
  endloop
endfacet
facet normal -0.499999999999998 -0.8660254037844397 -2.9305297823068373e-31
  outer loop
    vertex 8.75 7.834936490538904 20.0
    vertex 8.232233047033633 8.232233047033631 19.0
    vertex 8.75 7.834936490538904 19.0
  endloop
endfacet
facet normal -0.7071067811865475 -0.7071067811865475 -2.046745049822434e-31
  outer loop
    vertex 8.232233047033633 8.232233047033631 19.0
    vertex 8.75 7.834936490538904 20.0
    vertex 8.232233047033633 8.232233047033631 20.0
  endloop
endfacet
facet normal -0.8660254037844378 -0.5000000000000013 -1.0234780245987645e-31
  outer loop
    vertex 7.8349364905389045 8.75 20.0
    vertex 8.232233047033633 8.232233047033631 19.0
    vertex 8.232233047033633 8.232233047033631 20.0
  endloop
endfacet
facet normal -0.7071067811865475 -0.7071067811865475 -2.046745049822434e-31
  outer loop
    vertex 8.232233047033633 8.232233047033631 19.0
    vertex 7.8349364905389045 8.75 20.0
    vertex 7.8349364905389045 8.75 19.0
  endloop
endfacet
facet normal -0.9238795325112855 -0.3826834323650928 -4.810861022836037e-32
  outer loop
    vertex 7.73138309994563 9.0 20.0
    vertex 7.8349364905389045 8.75 19.0
    vertex 7.8349364905389045 8.75 20.0
  endloop
endfacet
facet normal -0.8660254037844378 -0.5000000000000013 -1.0234780245987645e-31
  outer loop
    vertex 7.8349364905389045 8.75 19.0
    vertex 7.73138309994563 9.0 20.0
    vertex 7.73138309994563 9.0 19.0
  endloop
endfacet
facet normal -1.0 4.3664438488669835e-16 1.1578138432715549e-31
  outer loop
    vertex 7.5 10.0 20.0
    vertex 7.58518543427733 9.352952387243695 19.0
    vertex 7.58518543427733 9.352952387243695 20.0
  endloop
endfacet
facet normal -0.9659258262890681 -0.25881904510252157 6.953733662391254e-33
  outer loop
    vertex 7.58518543427733 9.352952387243695 19.0
    vertex 7.5 10.0 20.0
    vertex 7.5 10.0 19.0
  endloop
endfacet
facet normal -0.9659258262890681 0.25881904510252157 2.1671872498780806e-31
  outer loop
    vertex 7.58518543427733 10.6470476127563 20.0
    vertex 7.5 10.0 19.0
    vertex 7.5 10.0 20.0
  endloop
endfacet
facet normal -1.0 4.3664438488669835e-16 1.1578138432715549e-31
  outer loop
    vertex 7.5 10.0 19.0
    vertex 7.58518543427733 10.6470476127563 20.0
    vertex 7.58518543427733 10.6470476127563 19.0
  endloop
endfacet
facet normal -0.9238795325112863 0.3826834323650908 2.620447126797231e-31
  outer loop
    vertex 7.731383099945631 11.0 20.0
    vertex 7.58518543427733 10.6470476127563 19.0
    vertex 7.58518543427733 10.6470476127563 20.0
  endloop
endfacet
facet normal -0.9659258262890681 0.25881904510252157 2.1671872498780806e-31
  outer loop
    vertex 7.58518543427733 10.6470476127563 19.0
    vertex 7.731383099945631 11.0 20.0
    vertex 7.731383099945631 11.0 19.0
  endloop
endfacet
facet normal -0.707106781186548 0.707106781186547 3.6841410896803795e-31
  outer loop
    vertex 8.232233047033631 11.767766952966367 20.0
    vertex 7.834936490538904 11.249999999999998 19.0
    vertex 7.834936490538904 11.249999999999998 20.0
  endloop
endfacet
facet normal -0.8660254037844395 0.4999999999999984 3.0288704268516713e-31
  outer loop
    vertex 7.834936490538904 11.249999999999998 19.0
    vertex 8.232233047033631 11.767766952966367 20.0
    vertex 8.232233047033631 11.767766952966367 19.0
  endloop
endfacet
facet normal -0.707106781186548 0.707106781186547 3.6841410896803795e-31
  outer loop
    vertex 8.232233047033631 11.767766952966367 20.0
    vertex 8.75 12.165063509461095 19.0
    vertex 8.232233047033631 11.767766952966367 19.0
  endloop
endfacet
facet normal -0.5000000000000013 0.8660254037844378 4.0883436255783815e-31
  outer loop
    vertex 8.75 12.165063509461095 19.0
    vertex 8.232233047033631 11.767766952966367 20.0
    vertex 8.75 12.165063509461095 20.0
  endloop
endfacet
facet normal -0.5000000000000013 0.8660254037844378 4.0883436255783815e-31
  outer loop
    vertex 8.75 12.165063509461095 20.0
    vertex 9.0 12.26861690005437 19.0
    vertex 8.75 12.165063509461095 19.0
  endloop
endfacet
facet normal -0.3826834323650928 0.9238795325112855 4.186957968481837e-31
  outer loop
    vertex 9.0 12.26861690005437 19.0
    vertex 8.75 12.165063509461095 20.0
    vertex 9.0 12.26861690005437 20.0
  endloop
endfacet
facet normal -0.25881904510252157 0.9659258262890681 4.21393229970051e-31
  outer loop
    vertex 9.352952387243695 12.41481456572267 20.0
    vertex 10.0 12.5 19.0
    vertex 9.352952387243695 12.41481456572267 19.0
  endloop
endfacet
facet normal 2.940666265563479e-16 1.0 4.052348451450435e-31
  outer loop
    vertex 10.0 12.5 19.0
    vertex 9.352952387243695 12.41481456572267 20.0
    vertex 10.0 12.5 20.0
  endloop
endfacet
facet normal 0.38268343236509017 0.9238795325112866 3.3008056173158896e-31
  outer loop
    vertex 11.0 12.26861690005437 20.0
    vertex 11.25 12.165063509461097 19.0
    vertex 11.0 12.26861690005437 19.0
  endloop
endfacet
facet normal 0.4999999999999997 0.8660254037844389 2.9305297823068334e-31
  outer loop
    vertex 11.25 12.165063509461097 19.0
    vertex 11.0 12.26861690005437 20.0
    vertex 11.25 12.165063509461097 20.0
  endloop
endfacet
facet normal 0.9238795325112866 0.38268343236509034 4.8108610228359264e-32
  outer loop
    vertex 12.26861690005437 11.0 19.0
    vertex 12.41481456572267 10.647047612756303 20.0
    vertex 12.41481456572267 10.647047612756303 19.0
  endloop
endfacet
facet normal 0.9659258262890682 0.258819045102521 -6.953733662391498e-33
  outer loop
    vertex 12.41481456572267 10.647047612756303 20.0
    vertex 12.26861690005437 11.0 19.0
    vertex 12.26861690005437 11.0 20.0
  endloop
endfacet
facet normal 0.9238795325112884 -0.3826834323650857 -2.6204471267972123e-31
  outer loop
    vertex 12.268616900054369 9.0 19.0
    vertex 12.165063509461097 8.75 20.0
    vertex 12.165063509461097 8.75 19.0
  endloop
endfacet
facet normal 0.8660254037844397 -0.499999999999998 -3.02887042685167e-31
  outer loop
    vertex 12.165063509461097 8.75 20.0
    vertex 12.268616900054369 9.0 19.0
    vertex 12.268616900054369 9.0 20.0
  endloop
endfacet
facet normal 0.3826834323650934 -0.9238795325112852 -4.186957968481836e-31
  outer loop
    vertex 11.0 7.731383099945631 20.0
    vertex 10.647047612756303 7.58518543427733 19.0
    vertex 11.0 7.731383099945631 19.0
  endloop
endfacet
facet normal 0.25881904510252274 -0.9659258262890678 -4.213932299700511e-31
  outer loop
    vertex 10.647047612756303 7.58518543427733 19.0
    vertex 11.0 7.731383099945631 20.0
    vertex 10.647047612756303 7.58518543427733 20.0
  endloop
endfacet
facet normal -0.3826834323650857 -0.9238795325112884 -3.300805617315902e-31
  outer loop
    vertex 9.0 7.731383099945631 20.0
    vertex 8.75 7.834936490538904 19.0
    vertex 9.0 7.731383099945631 19.0
  endloop
endfacet
facet normal -0.499999999999998 -0.8660254037844397 -2.9305297823068373e-31
  outer loop
    vertex 8.75 7.834936490538904 19.0
    vertex 9.0 7.731383099945631 20.0
    vertex 8.75 7.834936490538904 20.0
  endloop
endfacet
facet normal -0.9659258262890681 -0.25881904510252157 6.953733662391254e-33
  outer loop
    vertex 7.58518543427733 9.352952387243695 20.0
    vertex 7.73138309994563 9.0 19.0
    vertex 7.73138309994563 9.0 20.0
  endloop
endfacet
facet normal -0.9238795325112861 -0.3826834323650916 -4.810861022835986e-32
  outer loop
    vertex 7.73138309994563 9.0 19.0
    vertex 7.58518543427733 9.352952387243695 20.0
    vertex 7.58518543427733 9.352952387243695 19.0
  endloop
endfacet
facet normal -0.8660254037844395 0.4999999999999984 3.0288704268516713e-31
  outer loop
    vertex 7.834936490538904 11.249999999999998 20.0
    vertex 7.731383099945631 11.0 19.0
    vertex 7.731383099945631 11.0 20.0
  endloop
endfacet
facet normal -0.9238795325112877 0.3826834323650876 2.6204471267972193e-31
  outer loop
    vertex 7.731383099945631 11.0 19.0
    vertex 7.834936490538904 11.249999999999998 20.0
    vertex 7.834936490538904 11.249999999999998 19.0
  endloop
endfacet
facet normal -0.3826834323650916 0.9238795325112861 4.186957968481838e-31
  outer loop
    vertex 9.0 12.26861690005437 20.0
    vertex 9.352952387243695 12.41481456572267 19.0
    vertex 9.0 12.26861690005437 19.0
  endloop
endfacet
facet normal -0.25881904510252157 0.9659258262890681 4.21393229970051e-31
  outer loop
    vertex 9.352952387243695 12.41481456572267 19.0
    vertex 9.0 12.26861690005437 20.0
    vertex 9.352952387243695 12.41481456572267 20.0
  endloop
endfacet
facet normal 0.0 -1.0 0.0
  outer loop
    vertex 9.0 0.0 20.0
    vertex 0.0 0.0 15.0
    vertex 9.0 0.0 15.0
  endloop
endfacet
facet normal 0.0 -1.0 0.0
  outer loop
    vertex 0.0 0.0 15.0
    vertex 9.0 0.0 20.0
    vertex 0.0 0.0 20.0
  endloop
endfacet
facet normal 0.0 -1.0 0.0
  outer loop
    vertex 20.0 0.0 20.0
    vertex 11.0 0.0 15.0
    vertex 19.999999999999996 0.0 15.0
  endloop
endfacet
facet normal 0.0 -1.0 0.0
  outer loop
    vertex 11.0 0.0 15.0
    vertex 20.0 0.0 20.0
    vertex 11.0 0.0 20.0
  endloop
endfacet
facet normal 1.0 -0.0 -5.639932965095795e-16
  outer loop
    vertex 19.999999999999996 8.999999999999998 15.0
    vertex 20.0 0.0 20.0
    vertex 19.999999999999996 0.0 15.0
  endloop
endfacet
facet normal 1.0 -0.0 -5.639932965095795e-16
  outer loop
    vertex 20.0 0.0 20.0
    vertex 19.999999999999996 8.999999999999998 15.0
    vertex 20.0 8.999999999999998 20.0
  endloop
endfacet
facet normal 1.0 -1.5666480458599432e-16 -2.819966482547898e-16
  outer loop
    vertex 20.0 20.0 15.0
    vertex 20.0 11.0 20.0
    vertex 19.999999999999996 11.0 15.0
  endloop
endfacet
facet normal 1.0 -1.5666480458599432e-16 -2.819966482547898e-16
  outer loop
    vertex 20.0 11.0 20.0
    vertex 20.0 20.0 15.0
    vertex 20.0 20.0 20.0
  endloop
endfacet
facet normal -0.0 1.0 -0.0
  outer loop
    vertex 11.0 20.0 20.0
    vertex 20.0 20.0 15.0
    vertex 10.999999999999996 20.0 15.0
  endloop
endfacet
facet normal -0.0 1.0 -0.0
  outer loop
    vertex 20.0 20.0 15.0
    vertex 11.0 20.0 20.0
    vertex 20.0 20.0 20.0
  endloop
endfacet
facet normal -0.0 1.0 -0.0
  outer loop
    vertex 0.0 20.0 20.0
    vertex 9.0 20.0 15.0
    vertex 0.0 20.0 15.0
  endloop
endfacet
facet normal -0.0 1.0 -0.0
  outer loop
    vertex 9.0 20.0 15.0
    vertex 0.0 20.0 20.0
    vertex 9.0 20.0 20.0
  endloop
endfacet
facet normal -1.0 0.0 0.0
  outer loop
    vertex 0.0 20.0 20.0
    vertex 0.0 11.0 15.0
    vertex 0.0 11.0 20.0
  endloop
endfacet
facet normal -1.0 0.0 0.0
  outer loop
    vertex 0.0 11.0 15.0
    vertex 0.0 20.0 20.0
    vertex 0.0 20.0 15.0
  endloop
endfacet
facet normal -1.0 0.0 0.0
  outer loop
    vertex 0.0 8.999999999999998 20.0
    vertex 0.0 0.0 15.0
    vertex 0.0 0.0 20.0
  endloop
endfacet
facet normal -1.0 0.0 0.0
  outer loop
    vertex 0.0 0.0 15.0
    vertex 0.0 8.999999999999998 20.0
    vertex 0.0 8.999999999999998 15.0
  endloop
endfacet
facet normal 0.0 0.0 -1.0
  outer loop
    vertex 9.0 20.0 15.0
    vertex 0.0 11.0 15.0
    vertex 0.0 20.0 15.0
  endloop
endfacet
facet normal 0.0 0.0 -1.0
  outer loop
    vertex 0.0 11.0 15.0
    vertex 9.0 20.0 15.0
    vertex 0.9999999999999998 11.0 15.0
  endloop
endfacet
facet normal 0.0 0.0 -1.0
  outer loop
    vertex 0.9999999999999998 11.0 15.0
    vertex 9.0 20.0 15.0
    vertex 0.9999999999999998 8.999999999999998 15.0
  endloop
endfacet
facet normal 0.0 0.0 -1.0
  outer loop
    vertex 10.999999999999996 19.0 15.0
    vertex 9.0 0.9999999999999998 15.0
    vertex 9.0 19.0 15.0
  endloop
endfacet
facet normal 0.0 0.0 -1.0
  outer loop
    vertex 9.0 0.9999999999999998 15.0
    vertex 10.999999999999996 19.0 15.0
    vertex 11.0 0.9999999999999998 15.0
  endloop
endfacet
facet normal 0.0 0.0 -1.0
  outer loop
    vertex 0.9999999999999998 8.999999999999998 15.0
    vertex 0.0 0.0 15.0
    vertex 0.0 8.999999999999998 15.0
  endloop
endfacet
facet normal 0.0 0.0 -1.0
  outer loop
    vertex 0.0 0.0 15.0
    vertex 0.9999999999999998 8.999999999999998 15.0
    vertex 9.0 0.0 15.0
  endloop
endfacet
facet normal 0.0 0.0 -1.0
  outer loop
    vertex 9.0 0.0 15.0
    vertex 0.9999999999999998 8.999999999999998 15.0
    vertex 9.0 20.0 15.0
  endloop
endfacet
facet normal 0.0 0.0 -1.0
  outer loop
    vertex 9.0 0.0 15.0
    vertex 9.0 20.0 15.0
    vertex 9.0 19.0 15.0
  endloop
endfacet
facet normal 0.0 0.0 -1.0
  outer loop
    vertex 9.0 0.0 15.0
    vertex 9.0 19.0 15.0
    vertex 9.0 0.9999999999999998 15.0
  endloop
endfacet
facet normal 0.0 0.0 -1.0
  outer loop
    vertex 20.0 20.0 15.0
    vertex 10.999999999999996 19.0 15.0
    vertex 10.999999999999996 20.0 15.0
  endloop
endfacet
facet normal 0.0 0.0 -1.0
  outer loop
    vertex 10.999999999999996 19.0 15.0
    vertex 20.0 20.0 15.0
    vertex 11.0 0.9999999999999998 15.0
  endloop
endfacet
facet normal 0.0 0.0 -1.0
  outer loop
    vertex 11.0 0.9999999999999998 15.0
    vertex 20.0 20.0 15.0
    vertex 11.0 0.0 15.0
  endloop
endfacet
facet normal 0.0 0.0 -1.0
  outer loop
    vertex 11.0 0.0 15.0
    vertex 20.0 20.0 15.0
    vertex 18.999999999999996 11.0 15.0
  endloop
endfacet
facet normal 0.0 0.0 -1.0
  outer loop
    vertex 18.999999999999996 11.0 15.0
    vertex 20.0 20.0 15.0
    vertex 19.999999999999996 11.0 15.0
  endloop
endfacet
facet normal 0.0 0.0 -1.0
  outer loop
    vertex 11.0 0.0 15.0
    vertex 18.999999999999996 8.999999999999998 15.0
    vertex 19.999999999999996 0.0 15.0
  endloop
endfacet
facet normal 0.0 0.0 -1.0
  outer loop
    vertex 18.999999999999996 8.999999999999998 15.0
    vertex 11.0 0.0 15.0
    vertex 18.999999999999996 11.0 15.0
  endloop
endfacet
facet normal 0.0 0.0 -1.0
  outer loop
    vertex 19.999999999999996 0.0 15.0
    vertex 18.999999999999996 8.999999999999998 15.0
    vertex 19.999999999999996 8.999999999999998 15.0
  endloop
endfacet
facet normal -1.0 -1.9726373653754625e-16 3.986284800767608e-16
  outer loop
    vertex 11.0 20.0 20.0
    vertex 11.0 14.368347502412606 19.0
    vertex 11.0 14.368347502412606 20.0
  endloop
endfacet
facet normal -1.0 -1.9726373653754625e-16 3.986284800767608e-16
  outer loop
    vertex 11.0 14.368347502412606 19.0
    vertex 11.0 20.0 20.0
    vertex 10.999999999999996 19.0 19.0
  endloop
endfacet
facet normal -1.0 -1.9726373653754625e-16 3.986284800767608e-16
  outer loop
    vertex 10.999999999999996 19.0 19.0
    vertex 11.0 20.0 20.0
    vertex 10.999999999999996 19.0 15.0
  endloop
endfacet
facet normal -1.0 -1.9726373653754625e-16 3.986284800767608e-16
  outer loop
    vertex 10.999999999999996 19.0 15.0
    vertex 11.0 20.0 20.0
    vertex 10.999999999999996 20.0 15.0
  endloop
endfacet
facet normal 1.0 -0.0 -0.0
  outer loop
    vertex 9.0 20.0 15.0
    vertex 9.0 19.0 19.0
    vertex 9.0 19.0 15.0
  endloop
endfacet
facet normal 1.0 -0.0 -0.0
  outer loop
    vertex 9.0 19.0 19.0
    vertex 9.0 14.368347502412606 20.0
    vertex 9.0 14.368347502412606 19.0
  endloop
endfacet
facet normal 1.0 -0.0 -0.0
  outer loop
    vertex 9.0 14.368347502412606 20.0
    vertex 9.0 19.0 19.0
    vertex 9.0 20.0 20.0
  endloop
endfacet
facet normal 1.0 -0.0 -0.0
  outer loop
    vertex 9.0 20.0 20.0
    vertex 9.0 19.0 19.0
    vertex 9.0 20.0 15.0
  endloop
endfacet
facet normal -0.0 1.0 -0.0
  outer loop
    vertex 9.0 19.0 19.0
    vertex 10.999999999999996 19.0 15.0
    vertex 9.0 19.0 15.0
  endloop
endfacet
facet normal -0.0 1.0 -0.0
  outer loop
    vertex 10.999999999999996 19.0 15.0
    vertex 9.0 19.0 19.0
    vertex 10.999999999999996 19.0 19.0
  endloop
endfacet
facet normal 0.0 -1.0 0.0
  outer loop
    vertex 5.631652497587393 11.0 20.0
    vertex 0.9999999999999998 11.0 19.0
    vertex 5.631652497587393 11.0 19.0
  endloop
endfacet
facet normal 0.0 -1.0 0.0
  outer loop
    vertex 0.9999999999999998 11.0 19.0
    vertex 0.0 11.0 15.0
    vertex 0.9999999999999998 11.0 15.0
  endloop
endfacet
facet normal 0.0 -1.0 0.0
  outer loop
    vertex 0.0 11.0 15.0
    vertex 0.9999999999999998 11.0 19.0
    vertex 0.0 11.0 20.0
  endloop
endfacet
facet normal 0.0 -1.0 0.0
  outer loop
    vertex 0.0 11.0 20.0
    vertex 0.9999999999999998 11.0 19.0
    vertex 5.631652497587393 11.0 20.0
  endloop
endfacet
facet normal -2.624220040282976e-16 1.0 -1.1470897451960238e-17
  outer loop
    vertex 0.0 8.999999999999998 20.0
    vertex 0.9999999999999998 8.999999999999998 15.0
    vertex 0.0 8.999999999999998 15.0
  endloop
endfacet
facet normal -2.624220040282976e-16 1.0 -1.1470897451960238e-17
  outer loop
    vertex 0.9999999999999998 8.999999999999998 15.0
    vertex 0.0 8.999999999999998 20.0
    vertex 0.9999999999999998 8.999999999999998 19.0
  endloop
endfacet
facet normal -2.624220040282976e-16 1.0 -1.1470897451960238e-17
  outer loop
    vertex 0.9999999999999998 8.999999999999998 19.0
    vertex 0.0 8.999999999999998 20.0
    vertex 5.631652497587395 9.0 19.0
  endloop
endfacet
facet normal -2.624220040282976e-16 1.0 -1.1470897451960238e-17
  outer loop
    vertex 5.631652497587395 9.0 19.0
    vertex 0.0 8.999999999999998 20.0
    vertex 5.631652497587395 9.0 20.0
  endloop
endfacet
facet normal -1.0 0.0 0.0
  outer loop
    vertex 0.9999999999999998 11.0 19.0
    vertex 0.9999999999999998 8.999999999999998 15.0
    vertex 0.9999999999999998 8.999999999999998 19.0
  endloop
endfacet
facet normal -1.0 0.0 0.0
  outer loop
    vertex 0.9999999999999998 8.999999999999998 15.0
    vertex 0.9999999999999998 11.0 19.0
    vertex 0.9999999999999998 11.0 15.0
  endloop
endfacet
facet normal 1.6924311127542764e-31 -3.905610260202175e-31 1.0
  outer loop
    vertex 11.0 0.9999999999999996 19.0
    vertex 9.0 5.631652497587393 19.0
    vertex 9.0 0.9999999999999998 19.0
  endloop
endfacet
facet normal 1.6924311127542764e-31 -3.905610260202175e-31 1.0
  outer loop
    vertex 9.0 5.631652497587393 19.0
    vertex 11.0 0.9999999999999996 19.0
    vertex 9.0 14.368347502412606 19.0
  endloop
endfacet
facet normal 1.6924311127542764e-31 -3.905610260202175e-31 1.0
  outer loop
    vertex 9.0 14.368347502412606 19.0
    vertex 11.0 0.9999999999999996 19.0
    vertex 9.0 19.0 19.0
  endloop
endfacet
facet normal 1.6924311127542764e-31 -3.905610260202175e-31 1.0
  outer loop
    vertex 9.0 19.0 19.0
    vertex 11.0 0.9999999999999996 19.0
    vertex 10.999999999999996 19.0 19.0
  endloop
endfacet
facet normal 1.6924311127542764e-31 -3.905610260202175e-31 1.0
  outer loop
    vertex 10.999999999999996 19.0 19.0
    vertex 11.0 0.9999999999999996 19.0
    vertex 11.0 14.368347502412606 19.0
  endloop
endfacet
facet normal 1.6924311127542764e-31 -3.905610260202175e-31 1.0
  outer loop
    vertex 11.0 14.368347502412606 19.0
    vertex 11.0 0.9999999999999996 19.0
    vertex 11.0 5.631652497587394 19.0
  endloop
endfacet
facet normal 1.6924311127542764e-31 -3.905610260202175e-31 1.0
  outer loop
    vertex 11.0 14.368347502412606 19.0
    vertex 11.0 5.631652497587394 19.0
    vertex 11.164685702961345 5.6533337816991915 19.0
  endloop
endfacet
facet normal 1.6924311127542764e-31 -3.905610260202175e-31 1.0
  outer loop
    vertex 11.0 14.368347502412606 19.0
    vertex 11.164685702961345 5.6533337816991915 19.0
    vertex 11.164685702961345 14.34666621830081 19.0
  endloop
endfacet
facet normal 1.6924311127542764e-31 -3.905610260202175e-31 1.0
  outer loop
    vertex 11.164685702961345 14.34666621830081 19.0
    vertex 11.164685702961345 5.6533337816991915 19.0
    vertex 12.25 13.897114317029974 19.0
  endloop
endfacet
facet normal 1.6924311127542764e-31 -3.905610260202175e-31 1.0
  outer loop
    vertex 12.25 13.897114317029974 19.0
    vertex 11.164685702961345 5.6533337816991915 19.0
    vertex 12.250000000000004 6.102885682970025 19.0
  endloop
endfacet
facet normal 1.6924311127542764e-31 -3.905610260202175e-31 1.0
  outer loop
    vertex 12.25 13.897114317029974 19.0
    vertex 12.250000000000004 6.102885682970025 19.0
    vertex 13.181980515339465 13.181980515339465 19.0
  endloop
endfacet
facet normal 1.6924311127542764e-31 -3.905610260202175e-31 1.0
  outer loop
    vertex 13.181980515339465 13.181980515339465 19.0
    vertex 12.250000000000004 6.102885682970025 19.0
    vertex 13.181980515339465 6.818019484660535 19.0
  endloop
endfacet
facet normal 1.6924311127542764e-31 -3.905610260202175e-31 1.0
  outer loop
    vertex 13.181980515339465 13.181980515339465 19.0
    vertex 13.181980515339465 6.818019484660535 19.0
    vertex 13.897114317029974 7.75 19.0
  endloop
endfacet
facet normal 1.6924311127542764e-31 -3.905610260202175e-31 1.0
  outer loop
    vertex 13.181980515339465 13.181980515339465 19.0
    vertex 13.897114317029974 7.75 19.0
    vertex 13.897114317029974 12.250000000000002 19.0
  endloop
endfacet
facet normal 1.6924311127542764e-31 -3.905610260202175e-31 1.0
  outer loop
    vertex 13.897114317029974 12.250000000000002 19.0
    vertex 13.897114317029974 7.75 19.0
    vertex 14.34666621830081 8.835314297038657 19.0
  endloop
endfacet
facet normal 1.6924311127542764e-31 -3.905610260202175e-31 1.0
  outer loop
    vertex 13.897114317029974 12.250000000000002 19.0
    vertex 14.34666621830081 8.835314297038657 19.0
    vertex 14.34666621830081 11.164685702961345 19.0
  endloop
endfacet
facet normal 1.6924311127542764e-31 -3.905610260202175e-31 1.0
  outer loop
    vertex 14.34666621830081 11.164685702961345 19.0
    vertex 14.34666621830081 8.835314297038657 19.0
    vertex 14.368347502412606 9.0 19.0
  endloop
endfacet
facet normal 1.6924311127542764e-31 -3.905610260202175e-31 1.0
  outer loop
    vertex 14.34666621830081 11.164685702961345 19.0
    vertex 14.368347502412606 9.0 19.0
    vertex 14.368347502412606 11.0 19.0
  endloop
endfacet
facet normal 1.6924311127542764e-31 -3.905610260202175e-31 1.0
  outer loop
    vertex 14.368347502412606 11.0 19.0
    vertex 14.368347502412606 9.0 19.0
    vertex 18.999999999999996 8.999999999999998 19.0
  endloop
endfacet
facet normal 1.6924311127542764e-31 -3.905610260202175e-31 1.0
  outer loop
    vertex 14.368347502412606 11.0 19.0
    vertex 18.999999999999996 8.999999999999998 19.0
    vertex 18.999999999999996 11.0 19.0
  endloop
endfacet
facet normal 1.6924311127542764e-31 -3.905610260202175e-31 1.0
  outer loop
    vertex 5.631652497587395 9.0 19.0
    vertex 0.9999999999999998 11.0 19.0
    vertex 0.9999999999999998 8.999999999999998 19.0
  endloop
endfacet
facet normal 1.6924311127542764e-31 -3.905610260202175e-31 1.0
  outer loop
    vertex 0.9999999999999998 11.0 19.0
    vertex 5.631652497587395 9.0 19.0
    vertex 5.631652497587393 11.0 19.0
  endloop
endfacet
facet normal 1.6924311127542764e-31 -3.905610260202175e-31 1.0
  outer loop
    vertex 5.631652497587393 11.0 19.0
    vertex 5.631652497587395 9.0 19.0
    vertex 5.653333781699191 11.164685702961341 19.0
  endloop
endfacet
facet normal 1.6924311127542764e-31 -3.905610260202175e-31 1.0
  outer loop
    vertex 5.653333781699191 11.164685702961341 19.0
    vertex 5.631652497587395 9.0 19.0
    vertex 5.6533337816991915 8.835314297038654 19.0
  endloop
endfacet
facet normal 1.6924311127542764e-31 -3.905610260202175e-31 1.0
  outer loop
    vertex 5.653333781699191 11.164685702961341 19.0
    vertex 5.6533337816991915 8.835314297038654 19.0
    vertex 6.102885682970023 12.249999999999996 19.0
  endloop
endfacet
facet normal 1.6924311127542764e-31 -3.905610260202175e-31 1.0
  outer loop
    vertex 6.102885682970023 12.249999999999996 19.0
    vertex 5.6533337816991915 8.835314297038654 19.0
    vertex 6.102885682970026 7.749999999999997 19.0
  endloop
endfacet
facet normal 1.6924311127542764e-31 -3.905610260202175e-31 1.0
  outer loop
    vertex 6.102885682970023 12.249999999999996 19.0
    vertex 6.102885682970026 7.749999999999997 19.0
    vertex 6.818019484660535 13.181980515339465 19.0
  endloop
endfacet
facet normal 1.6924311127542764e-31 -3.905610260202175e-31 1.0
  outer loop
    vertex 6.818019484660535 13.181980515339465 19.0
    vertex 6.102885682970026 7.749999999999997 19.0
    vertex 6.818019484660537 6.818019484660533 19.0
  endloop
endfacet
facet normal 1.6924311127542764e-31 -3.905610260202175e-31 1.0
  outer loop
    vertex 6.818019484660535 13.181980515339465 19.0
    vertex 6.818019484660537 6.818019484660533 19.0
    vertex 7.749999999999997 13.897114317029974 19.0
  endloop
endfacet
facet normal 1.6924311127542764e-31 -3.905610260202175e-31 1.0
  outer loop
    vertex 7.749999999999997 13.897114317029974 19.0
    vertex 6.818019484660537 6.818019484660533 19.0
    vertex 7.75 6.102885682970023 19.0
  endloop
endfacet
facet normal 1.6924311127542764e-31 -3.905610260202175e-31 1.0
  outer loop
    vertex 7.749999999999997 13.897114317029974 19.0
    vertex 7.75 6.102885682970023 19.0
    vertex 8.835314297038652 14.34666621830081 19.0
  endloop
endfacet
facet normal 1.6924311127542764e-31 -3.905610260202175e-31 1.0
  outer loop
    vertex 8.835314297038652 14.34666621830081 19.0
    vertex 7.75 6.102885682970023 19.0
    vertex 8.835314297038657 5.653333781699191 19.0
  endloop
endfacet
facet normal 1.6924311127542764e-31 -3.905610260202175e-31 1.0
  outer loop
    vertex 8.835314297038652 14.34666621830081 19.0
    vertex 8.835314297038657 5.653333781699191 19.0
    vertex 9.0 14.368347502412606 19.0
  endloop
endfacet
facet normal 1.6924311127542764e-31 -3.905610260202175e-31 1.0
  outer loop
    vertex 9.0 14.368347502412606 19.0
    vertex 8.835314297038657 5.653333781699191 19.0
    vertex 9.0 5.631652497587393 19.0
  endloop
endfacet
facet normal 1.0 -0.0 -0.0
  outer loop
    vertex 9.0 0.9999999999999998 15.0
    vertex 9.0 0.0 20.0
    vertex 9.0 0.0 15.0
  endloop
endfacet
facet normal 1.0 -0.0 -0.0
  outer loop
    vertex 9.0 0.0 20.0
    vertex 9.0 0.9999999999999998 15.0
    vertex 9.0 0.9999999999999998 19.0
  endloop
endfacet
facet normal 1.0 -0.0 -0.0
  outer loop
    vertex 9.0 0.0 20.0
    vertex 9.0 0.9999999999999998 19.0
    vertex 9.0 5.631652497587393 20.0
  endloop
endfacet
facet normal 1.0 -0.0 -0.0
  outer loop
    vertex 9.0 5.631652497587393 20.0
    vertex 9.0 0.9999999999999998 19.0
    vertex 9.0 5.631652497587393 19.0
  endloop
endfacet
facet normal -1.0 0.0 0.0
  outer loop
    vertex 11.0 0.9999999999999998 15.0
    vertex 11.0 0.0 15.0
    vertex 11.0 0.9999999999999996 19.0
  endloop
endfacet
facet normal -1.0 0.0 0.0
  outer loop
    vertex 11.0 0.0 20.0
    vertex 11.0 0.9999999999999996 19.0
    vertex 11.0 0.0 15.0
  endloop
endfacet
facet normal -1.0 0.0 0.0
  outer loop
    vertex 11.0 0.9999999999999996 19.0
    vertex 11.0 0.0 20.0
    vertex 11.0 5.631652497587394 20.0
  endloop
endfacet
facet normal -1.0 0.0 0.0
  outer loop
    vertex 11.0 0.9999999999999996 19.0
    vertex 11.0 5.631652497587394 20.0
    vertex 11.0 5.631652497587394 19.0
  endloop
endfacet
facet normal -4.4061976289810916e-17 -1.0 -2.2030988144905458e-17
  outer loop
    vertex 11.0 0.9999999999999996 19.0
    vertex 9.0 0.9999999999999998 15.0
    vertex 11.0 0.9999999999999998 15.0
  endloop
endfacet
facet normal -4.4061976289810916e-17 -1.0 -2.2030988144905458e-17
  outer loop
    vertex 9.0 0.9999999999999998 15.0
    vertex 11.0 0.9999999999999996 19.0
    vertex 9.0 0.9999999999999998 19.0
  endloop
endfacet
facet normal 2.624220040282977e-16 1.0 -1.1470897451960348e-17
  outer loop
    vertex 14.368347502412606 9.0 20.0
    vertex 18.999999999999996 8.999999999999998 19.0
    vertex 14.368347502412606 9.0 19.0
  endloop
endfacet
facet normal 2.624220040282977e-16 1.0 -1.1470897451960348e-17
  outer loop
    vertex 18.999999999999996 8.999999999999998 19.0
    vertex 19.999999999999996 8.999999999999998 15.0
    vertex 18.999999999999996 8.999999999999998 15.0
  endloop
endfacet
facet normal 2.624220040282977e-16 1.0 -1.1470897451960348e-17
  outer loop
    vertex 19.999999999999996 8.999999999999998 15.0
    vertex 18.999999999999996 8.999999999999998 19.0
    vertex 20.0 8.999999999999998 20.0
  endloop
endfacet
facet normal 2.624220040282977e-16 1.0 -1.1470897451960348e-17
  outer loop
    vertex 20.0 8.999999999999998 20.0
    vertex 18.999999999999996 8.999999999999998 19.0
    vertex 14.368347502412606 9.0 20.0
  endloop
endfacet
facet normal 0.0 -1.0 0.0
  outer loop
    vertex 20.0 11.0 20.0
    vertex 18.999999999999996 11.0 15.0
    vertex 19.999999999999996 11.0 15.0
  endloop
endfacet
facet normal 0.0 -1.0 0.0
  outer loop
    vertex 18.999999999999996 11.0 15.0
    vertex 20.0 11.0 20.0
    vertex 18.999999999999996 11.0 19.0
  endloop
endfacet
facet normal 0.0 -1.0 0.0
  outer loop
    vertex 18.999999999999996 11.0 19.0
    vertex 20.0 11.0 20.0
    vertex 14.368347502412606 11.0 19.0
  endloop
endfacet
facet normal 0.0 -1.0 0.0
  outer loop
    vertex 14.368347502412606 11.0 19.0
    vertex 20.0 11.0 20.0
    vertex 14.368347502412606 11.0 20.0
  endloop
endfacet
facet normal 1.0 -0.0 -0.0
  outer loop
    vertex 18.999999999999996 11.0 15.0
    vertex 18.999999999999996 8.999999999999998 19.0
    vertex 18.999999999999996 8.999999999999998 15.0
  endloop
endfacet
facet normal 1.0 -0.0 -0.0
  outer loop
    vertex 18.999999999999996 8.999999999999998 19.0
    vertex 18.999999999999996 11.0 15.0
    vertex 18.999999999999996 11.0 19.0
  endloop
endfacet
endsolid crate 20mm 5mm flat
